<svg height='200' width='200'  fill="#000000" xmlns="http://www.w3.org/2000/svg" xmlns:xlink="http://www.w3.org/1999/xlink" version="1.1" x="0px" y="0px" viewBox="0 0 100 100" enable-background="new 0 0 100 100" xml:space="preserve"><path d="M81.293,30.567L49.999,12.5L18.625,30.612l-1.098,0.639v1.617v35.883l28.985,16.729l2.158,1.245l1.329,0.775l1.169-0.686  l2.324-1.335l28.98-16.729V32.771v-1.521L81.293,30.567z M48.67,83.845l-28.645-16.54V34.309L48.67,50.847V83.845z M49.919,48.686  L21.123,32.06l28.876-16.672l28.798,16.626L49.919,48.686z"></path><path d="M37.97,50.298c-1.662-2.99-4.833-4.396-7.093-3.146c-2.261,1.25-2.749,4.689-1.092,7.68  c0.434,0.773,0.974,1.438,1.568,1.989l-1.948,10.543l6.791,4.369l-1.214-13.307c0.664,0.012,1.313-0.129,1.896-0.447  C39.132,56.73,39.625,53.289,37.97,50.298z"></path></svg>